# Blender v2.83.2 OBJ File: 'diamonds1.blend'
# www.blender.org
mtllib diamond.mtl
o diamondwhite_dmesh
v 2.132218 1.638478 -0.166856
v 1.783682 1.368175 -0.941299
v 1.163596 1.261121 -1.572437
v 0.366363 1.333613 -1.964186
v -0.486645 1.574617 -2.056905
v -1.265566 1.947440 -1.836480
v -1.851815 2.395324 -1.336467
v -2.156143 2.850083 -0.632989
v -2.132218 3.242483 0.166856
v -1.783682 3.512786 0.941298
v -1.163596 3.619840 1.572437
v -0.366364 3.547348 1.964186
v 0.486645 3.306345 2.056905
v 1.265566 2.933521 1.836479
v 1.851815 2.485637 1.336467
v 2.156143 2.030878 0.632989
v 2.154623 1.704969 -0.200147
v 1.806086 1.434666 -0.974589
v 1.186000 1.327612 -1.605727
v 0.388768 1.400105 -1.997476
v -0.464240 1.641108 -2.090196
v -1.243161 2.013931 -1.869770
v -1.829411 2.461815 -1.369757
v -2.133739 2.916574 -0.666279
v -2.109813 3.308975 0.133566
v -1.761277 3.579278 0.908008
v -1.141191 3.686332 1.539146
v -0.343959 3.613839 1.930895
v 0.509049 3.372836 2.023615
v 1.287970 3.000012 1.803189
v 1.874220 2.552129 1.303176
v 2.178548 2.097369 0.599698
v 2.008083 1.519912 -0.582429
v 1.514284 1.327537 -1.298987
v 0.791741 1.309917 -1.820451
v -0.049544 1.469736 -2.067431
v -0.881494 1.782662 -2.002327
v -1.577452 2.201055 -1.635050
v -2.031465 2.661219 -1.021516
v -2.174413 3.093097 -0.255128
v -1.984533 3.430940 0.547436
v -1.490734 3.623315 1.263995
v -0.768192 3.640934 1.785458
v 0.073094 3.481115 2.032438
v 0.905044 3.168189 1.967334
v 1.601002 2.749797 1.600058
v 2.055015 2.289633 0.986524
v 2.197963 1.857755 0.220136
v 2.008226 1.520336 -0.582641
v 1.514427 1.327961 -1.299200
v 0.791884 1.310342 -1.820663
v -0.049401 1.470161 -2.067643
v -0.881351 1.783087 -2.002539
v -1.577309 2.201479 -1.635263
v -2.031322 2.661643 -1.021728
v -2.174270 3.093521 -0.255341
v -1.984390 3.431364 0.547224
v -1.490591 3.623739 1.263783
v -0.768049 3.641359 1.785246
v 0.073237 3.481540 2.032226
v 0.905187 3.168614 1.967122
v 1.601145 2.750221 1.599845
v 2.055158 2.290057 0.986311
v 2.198106 1.858179 0.219923
v 2.083118 1.583785 -0.380840
v 1.908007 1.447979 -0.769934
v 1.659912 1.351326 -1.129947
v 1.348369 1.297540 -1.447043
v 0.985350 1.288688 -1.709037
v 0.584805 1.325110 -1.905859
v 0.162127 1.405406 -2.029946
v -0.266441 1.526490 -2.076530
v -0.684428 1.683711 -2.043821
v -1.075773 1.871024 -1.933075
v -1.425436 2.081233 -1.748548
v -1.719979 2.306258 -1.497332
v -1.948084 2.537453 -1.189080
v -2.100984 2.765933 -0.835640
v -2.172804 2.982917 -0.450592
v -2.160783 3.180067 -0.048734
v -2.065384 3.349805 0.354489
v -1.890273 3.485611 0.743584
v -1.642179 3.582264 1.103598
v -1.330636 3.636050 1.420693
v -0.967616 3.644902 1.682687
v -0.567071 3.608480 1.879509
v -0.144393 3.528184 2.003596
v 0.284175 3.407099 2.050180
v 0.702162 3.249880 2.017471
v 1.093507 3.062566 1.906725
v 1.443170 2.852357 1.722198
v 1.737713 2.627332 1.470982
v 1.965818 2.396137 1.162730
v 2.118718 2.167657 0.809289
v 2.190538 1.950673 0.424242
v 2.178517 1.753524 0.022384
v 2.088759 1.600526 -0.389222
v 1.913648 1.464721 -0.778316
v 1.665554 1.368068 -1.138330
v 1.354011 1.314282 -1.455426
v 0.990991 1.305429 -1.717419
v 0.590446 1.341851 -1.914241
v 0.167768 1.422147 -2.038328
v -0.260800 1.543232 -2.084913
v -0.678787 1.700452 -2.052203
v -1.070132 1.887766 -1.941457
v -1.419795 2.097974 -1.756930
v -1.714338 2.323000 -1.505714
v -1.942443 2.554195 -1.197462
v -2.095343 2.782674 -0.844022
v -2.167163 2.999658 -0.458974
v -2.155142 3.196808 -0.057116
v -2.059743 3.366547 0.346107
v -1.884632 3.502352 0.735202
v -1.636537 3.599005 1.095215
v -1.324995 3.652791 1.412311
v -0.961975 3.661644 1.674305
v -0.561430 3.625222 1.871127
v -0.138752 3.544926 1.995214
v 0.289816 3.423841 2.041798
v 0.707803 3.266621 2.009089
v 1.099148 3.079308 1.898343
v 1.448811 2.869099 1.713816
v 1.743354 2.644073 1.462600
v 1.971459 2.412878 1.154348
v 2.124359 2.184398 0.800907
v 2.196179 1.967415 0.415860
v 2.184158 1.770265 0.014002
v 1.432623 2.230664 -0.930928
v 0.439297 2.206442 -1.647817
v -0.704439 2.636642 -1.558315
v -1.328599 3.269258 -0.714849
v -1.067560 3.733713 0.388488
v -0.074234 3.757936 1.105378
v 1.069502 3.327736 1.015875
v 1.693663 2.695120 0.172409
v 1.365983 2.715533 -0.438964
v 0.852613 2.515534 -1.183921
v -0.022015 2.681687 -1.440690
v -0.745555 3.116662 -1.058857
v -0.894168 3.565656 -0.262096
v -0.380799 3.765655 0.482862
v 0.493829 3.599503 0.739630
v 1.217369 3.164528 0.357797
v 0.431444 0.964768 0.098866
v -0.182194 0.949805 -0.344000
v -0.888749 1.215565 -0.288709
v -1.274330 1.606371 0.232351
v -1.113071 1.893293 0.913949
v -0.499433 1.908256 1.356816
v 0.207122 1.642496 1.301524
v 0.592704 1.251690 0.780465
v -0.568022 0.754731 0.844013
vn 0.9219 -0.3693 -0.1171
vn 0.9428 -0.3321 -0.0288
vn 0.7528 -0.4795 -0.4511
vn 0.8071 -0.4583 -0.3721
vn 0.4690 -0.5167 -0.7163
vn 0.5486 -0.5147 -0.6589
vn 0.1139 -0.4752 -0.8725
vn 0.2065 -0.4928 -0.8453
vn -0.2586 -0.3614 -0.8958
vn -0.1670 -0.3958 -0.9030
vn -0.5917 -0.1926 -0.7828
vn -0.5151 -0.2386 -0.8233
vn -0.8347 0.0056 -0.5506
vn -0.7847 -0.0451 -0.6182
vn -0.9507 0.2029 -0.2346
vn -0.9349 0.1553 -0.3190
vn -0.9219 0.3693 0.1171
vn -0.9428 0.3321 0.0288
vn -0.7528 0.4795 0.4511
vn -0.8071 0.4583 0.3722
vn -0.4690 0.5167 0.7163
vn -0.5486 0.5147 0.6589
vn -0.1139 0.4752 0.8725
vn -0.2065 0.4928 0.8453
vn 0.2586 0.3614 0.8958
vn 0.1670 0.3958 0.9030
vn 0.5917 0.1926 0.7828
vn 0.5151 0.2386 0.8233
vn 0.8347 -0.0056 0.5506
vn 0.7847 0.0451 0.6182
vn 0.9507 -0.2029 0.2346
vn 0.9349 -0.1553 0.3190
vn 0.8921 -0.4030 -0.2044
vn 0.8539 -0.4324 -0.2897
vn 0.6911 -0.4961 -0.5256
vn 0.6227 -0.5077 -0.5954
vn 0.3849 -0.5136 -0.7668
vn 0.2971 -0.5054 -0.8101
vn 0.0201 -0.4530 -0.8913
vn -0.0734 -0.4261 -0.9017
vn -0.3477 -0.3235 -0.8800
vn -0.4335 -0.2824 -0.8558
vn -0.6626 -0.1446 -0.7348
vn -0.7272 -0.0955 -0.6797
vn -0.8767 0.0562 -0.4778
vn -0.9102 0.1062 -0.4003
vn -0.9573 0.2485 -0.1479
vn -0.9546 0.2918 -0.0599
vn -0.8921 0.4029 0.2044
vn -0.8535 0.4328 0.2901
vn -0.6911 0.4961 0.5256
vn -0.6231 0.5082 0.5946
vn -0.3849 0.5136 0.7668
vn -0.2973 0.5057 0.8098
vn -0.0201 0.4530 0.8913
vn 0.0736 0.4265 0.9015
vn 0.3477 0.3235 0.8800
vn 0.4339 0.2827 0.8555
vn 0.6626 0.1446 0.7348
vn 0.7271 0.0952 0.6799
vn 0.8767 -0.0562 0.4778
vn 0.9101 -0.1067 0.4004
vn 0.9573 -0.2485 0.1479
vn 0.9547 -0.2913 0.0599
vn 0.8326 0.4868 -0.2642
vn 0.7926 0.6077 -0.0494
vn 0.6421 0.3386 -0.6878
vn 0.7795 0.3923 -0.4883
vn 0.2054 0.3781 -0.9027
vn 0.4396 0.3338 -0.8339
vn -0.2216 0.5824 -0.7822
vn -0.0277 0.4660 -0.8843
vn -0.3886 0.8316 -0.3968
vn -0.3487 0.7114 -0.6102
vn -0.1979 0.9798 0.0277
vn -0.3352 0.9263 -0.1719
vn 0.2389 0.9403 0.2426
vn 0.0047 0.9848 0.1737
vn 0.6658 0.7360 0.1221
vn 0.4721 0.8526 0.2242
vn 0.5490 0.6313 -0.5478
vn 0.5267 0.4119 -0.7436
vn 0.3268 0.6259 -0.7082
vn 0.1166 0.4898 -0.8640
vn 0.0709 0.7221 -0.6881
vn -0.2226 0.6937 -0.6850
vn -0.0687 0.8636 -0.4995
vn -0.2923 0.9042 -0.3115
vn -0.0103 0.9675 -0.2527
vn -0.0516 0.9980 0.0378
vn 0.2119 0.9729 -0.0923
vn 0.3584 0.9201 0.1582
vn 0.4678 0.8767 -0.1123
vn 0.6977 0.7161 -0.0208
vn 0.6074 0.7352 -0.3010
vn 0.7673 0.5056 -0.3944
vn 0.2885 0.8562 -0.4287
vn 0.3841 -0.9117 0.1459
vn 0.4406 -0.8113 0.3843
vn 0.0217 -0.9745 -0.2234
vn 0.2364 -0.9692 -0.0685
vn -0.4771 -0.8337 -0.2779
vn -0.2300 -0.9266 -0.2974
vn -0.8202 -0.5718 0.0142
vn -0.6854 -0.7085 -0.1681
vn -0.8066 -0.3423 0.4819
vn -0.8631 -0.4425 0.2435
vn -0.4442 -0.2795 0.8512
vn -0.6589 -0.2846 0.6963
vn 0.0546 -0.4203 0.9058
vn -0.1925 -0.3272 0.9251
vn 0.3977 -0.6821 0.6136
vn 0.2629 -0.5453 0.7959
vn 0.3910 -0.8777 0.2770
vn 0.1141 -0.9856 -0.1248
vn -0.3576 -0.8960 -0.2633
vn -0.7478 -0.6614 -0.0573
vn -0.8280 -0.4192 0.3724
vn -0.5511 -0.3114 0.7742
vn -0.0794 -0.4010 0.9126
vn 0.3108 -0.6356 0.7067
vn -0.7528 0.4795 0.4510
vn 0.7848 0.0451 0.6182
vn 0.8921 -0.4029 -0.2044
vn 0.8537 -0.4327 -0.2897
vn 0.6912 -0.4961 -0.5256
vn 0.6229 -0.5078 -0.5951
vn 0.3850 -0.5135 -0.7669
vn 0.2972 -0.5057 -0.8099
vn 0.0204 -0.4526 -0.8915
vn -0.0738 -0.4265 -0.9015
vn -0.3476 -0.3233 -0.8801
vn -0.6628 -0.1448 -0.7347
vn -0.7272 -0.0953 -0.6798
vn -0.8768 0.0558 -0.4777
vn -0.9102 0.1063 -0.4003
vn -0.9572 0.2489 -0.1480
vn -0.9546 0.2917 -0.0599
vn -0.8920 0.4034 0.2038
vn -0.8537 0.4327 0.2897
vn -0.6905 0.4963 0.5263
vn -0.6229 0.5078 0.5951
vn -0.3851 0.5135 0.7668
vn -0.2972 0.5056 0.8099
vn -0.0204 0.4528 0.8914
vn 0.0738 0.4265 0.9015
vn 0.3474 0.3233 0.8802
vn 0.4335 0.2824 0.8558
vn 0.6625 0.1448 0.7349
vn 0.7272 0.0953 0.6798
vn 0.8767 -0.0563 0.4777
vn 0.9102 -0.1063 0.4003
vn 0.9572 -0.2489 0.1480
vn 0.9546 -0.2917 0.0599
vn 0.8329 0.4868 -0.2633
vn 0.8327 0.4867 -0.2642
vn 0.8328 0.4870 -0.2633
vn 0.7931 0.6071 -0.0499
vn 0.7925 0.6078 -0.0495
vn 0.7930 0.6072 -0.0500
vn 0.6415 0.3387 -0.6883
vn 0.6421 0.3387 -0.6877
vn 0.6414 0.3389 -0.6883
vn 0.7799 0.3926 -0.4875
vn 0.7797 0.3921 -0.4882
vn 0.7798 0.3928 -0.4875
vn 0.2046 0.3786 -0.9027
vn 0.2055 0.3783 -0.9026
vn 0.2047 0.3788 -0.9026
vn 0.4404 0.3338 -0.8334
vn 0.4397 0.3336 -0.8339
vn 0.4404 0.3340 -0.8334
vn -0.2220 0.5829 -0.7816
vn -0.2214 0.5824 -0.7821
vn -0.2218 0.5831 -0.7815
vn -0.0269 0.4657 -0.8845
vn -0.0278 0.4658 -0.8844
vn -0.0268 0.4659 -0.8845
vn -0.3884 0.8320 -0.3961
vn -0.3885 0.8316 -0.3969
vn -0.3882 0.8321 -0.3961
vn -0.3483 0.7110 -0.6109
vn -0.3488 0.7113 -0.6102
vn -0.3481 0.7111 -0.6109
vn -0.1971 0.9800 0.0281
vn -0.1978 0.9799 0.0275
vn -0.1970 0.9800 0.0279
vn -0.3355 0.9261 -0.1727
vn -0.3354 0.9263 -0.1719
vn -0.3353 0.9261 -0.1728
vn 0.2397 0.9401 0.2424
vn 0.2388 0.9403 0.2424
vn 0.2398 0.9401 0.2422
vn 0.0039 0.9849 0.1732
vn 0.0046 0.9848 0.1738
vn 0.0040 0.9849 0.1730
vn 0.6663 0.7357 0.1214
vn 0.6657 0.7362 0.1220
vn 0.6662 0.7358 0.1212
vn 0.4712 0.8530 0.2243
vn 0.4720 0.8526 0.2244
vn 0.4712 0.8531 0.2241
vn 0.3839 -0.9119 0.1450
vn 0.3842 -0.9117 0.1459
vn 0.3838 -0.9120 0.1450
vn 0.4407 -0.8108 0.3851
vn 0.4405 -0.8113 0.3843
vn 0.4406 -0.8109 0.3852
vn 0.0210 -0.9744 -0.2240
vn 0.0217 -0.9745 -0.2235
vn 0.0209 -0.9744 -0.2239
vn 0.2371 -0.9691 -0.0680
vn 0.2363 -0.9693 -0.0685
vn 0.2371 -0.9691 -0.0679
vn -0.4780 -0.8332 -0.2779
vn -0.4772 -0.8337 -0.2780
vn -0.4780 -0.8333 -0.2778
vn -0.2291 -0.9269 -0.2974
vn -0.2300 -0.9267 -0.2973
vn -0.2291 -0.9269 -0.2973
vn -0.8207 -0.5712 0.0148
vn -0.8203 -0.5718 0.0141
vn -0.8206 -0.5713 0.0149
vn -0.6848 -0.7089 -0.1687
vn -0.6854 -0.7085 -0.1680
vn -0.6848 -0.7090 -0.1687
vn -0.8063 -0.3418 0.4827
vn -0.8067 -0.3422 0.4819
vn -0.8063 -0.3419 0.4827
vn -0.8631 -0.4429 0.2426
vn -0.8630 -0.4426 0.2435
vn -0.8631 -0.4430 0.2426
vn -0.4434 -0.2793 0.8517
vn -0.4442 -0.2794 0.8512
vn -0.4434 -0.2795 0.8517
vn -0.6596 -0.2846 0.6957
vn -0.6589 -0.2847 0.6963
vn -0.6596 -0.2847 0.6956
vn 0.0555 -0.4205 0.9056
vn 0.0547 -0.4202 0.9058
vn 0.0555 -0.4206 0.9056
vn -0.1934 -0.3268 0.9251
vn -0.1925 -0.3273 0.9251
vn -0.1934 -0.3269 0.9250
vn 0.3982 -0.6825 0.6129
vn 0.3978 -0.6821 0.6136
vn 0.3981 -0.6826 0.6129
vn 0.2624 -0.5448 0.7965
vn 0.2628 -0.5454 0.7959
vn 0.2623 -0.5449 0.7964
usemtl white
s off
f 65//1 17//1 1//1
f 17//2 96//2 1//2
f 67//3 18//3 2//3
f 18//4 66//4 2//4
f 69//5 19//5 3//5
f 19//6 68//6 3//6
f 71//7 20//7 4//7
f 20//8 70//8 4//8
f 73//9 21//9 5//9
f 21//10 72//10 5//10
f 75//11 22//11 6//11
f 22//12 74//12 6//12
f 77//13 23//13 7//13
f 23//14 76//14 7//14
f 79//15 24//15 8//15
f 24//16 78//16 8//16
f 81//17 25//17 9//17
f 25//18 80//18 9//18
f 83//19 26//19 10//19
f 26//20 82//20 10//20
f 85//21 27//21 11//21
f 27//22 84//22 11//22
f 87//23 28//23 12//23
f 28//24 86//24 12//24
f 89//25 29//25 13//25
f 29//26 88//26 13//26
f 91//27 30//27 14//27
f 30//28 90//28 14//28
f 93//29 31//29 15//29
f 31//30 92//30 15//30
f 95//31 32//31 16//31
f 32//32 94//32 16//32
f 33//33 97//33 65//33
f 33//34 98//34 49//34
f 34//35 99//35 67//35
f 34//36 100//36 50//36
f 35//37 101//37 69//37
f 35//38 102//38 51//38
f 36//39 103//39 71//39
f 36//40 104//40 52//40
f 37//41 105//41 73//41
f 37//42 106//42 53//42
f 38//43 107//43 75//43
f 38//44 108//44 54//44
f 39//45 109//45 77//45
f 39//46 110//46 55//46
f 40//47 111//47 79//47
f 40//48 112//48 56//48
f 41//49 113//49 81//49
f 41//50 114//50 57//50
f 42//51 115//51 83//51
f 42//52 116//52 58//52
f 43//53 117//53 85//53
f 43//54 118//54 59//54
f 44//55 119//55 87//55
f 44//56 120//56 60//56
f 45//57 121//57 89//57
f 45//58 122//58 61//58
f 46//59 123//59 91//59
f 46//60 124//60 62//60
f 47//61 125//61 93//61
f 47//62 126//62 63//62
f 48//63 127//63 95//63
f 48//64 128//64 64//64
f 64//65 128//65 136//65
f 126//66 32//66 136//66
f 100//67 19//67 129//67
f 49//68 98//68 129//68
f 104//69 21//69 130//69
f 51//70 102//70 130//70
f 108//71 23//71 131//71
f 53//72 106//72 131//72
f 112//73 25//73 132//73
f 55//74 110//74 132//74
f 116//75 27//75 133//75
f 57//76 114//76 133//76
f 120//77 29//77 134//77
f 59//78 118//78 134//78
f 124//79 31//79 135//79
f 61//80 122//80 135//80
f 137//81 129//81 138//81
f 138//82 19//82 130//82
f 138//83 130//83 139//83
f 139//84 21//84 131//84
f 139//85 131//85 140//85
f 140//86 23//86 132//86
f 140//87 132//87 141//87
f 141//88 25//88 133//88
f 141//89 133//89 142//89
f 142//90 27//90 134//90
f 142//91 134//91 143//91
f 143//92 29//92 135//92
f 143//93 135//93 144//93
f 144//94 31//94 136//94
f 144//95 136//95 137//95
f 17//96 137//96 136//96
f 140//97 142//97 144//97
f 33//98 65//98 145//98
f 95//99 16//99 152//99
f 35//100 69//100 146//100
f 67//101 2//101 145//101
f 37//102 73//102 147//102
f 71//103 4//103 146//103
f 39//104 77//104 148//104
f 75//105 6//105 147//105
f 41//106 81//106 149//106
f 79//107 8//107 148//107
f 43//108 85//108 150//108
f 83//109 10//109 149//109
f 45//110 89//110 151//110
f 87//111 12//111 150//111
f 47//112 93//112 152//112
f 91//113 14//113 151//113
f 152//114 145//114 1//114
f 145//115 146//115 3//115
f 146//116 147//116 5//116
f 147//117 148//117 7//117
f 148//118 149//118 9//118
f 149//119 150//119 11//119
f 150//120 151//120 13//120
f 151//121 152//121 15//121
f 65//1 97//1 17//1
f 17//2 128//2 96//2
f 67//3 99//3 18//3
f 18//4 98//4 66//4
f 69//5 101//5 19//5
f 19//6 100//6 68//6
f 71//7 103//7 20//7
f 20//8 102//8 70//8
f 73//9 105//9 21//9
f 21//10 104//10 72//10
f 75//11 107//11 22//11
f 22//12 106//12 74//12
f 77//13 109//13 23//13
f 23//14 108//14 76//14
f 79//15 111//15 24//15
f 24//16 110//16 78//16
f 81//17 113//17 25//17
f 25//18 112//18 80//18
f 83//122 115//122 26//122
f 26//20 114//20 82//20
f 85//21 117//21 27//21
f 27//22 116//22 84//22
f 87//23 119//23 28//23
f 28//24 118//24 86//24
f 89//25 121//25 29//25
f 29//26 120//26 88//26
f 91//27 123//27 30//27
f 30//28 122//28 90//28
f 93//29 125//29 31//29
f 31//123 124//123 92//123
f 95//31 127//31 32//31
f 32//32 126//32 94//32
f 33//124 49//124 97//124
f 33//125 66//125 98//125
f 34//126 50//126 99//126
f 34//127 68//127 100//127
f 35//128 51//128 101//128
f 35//129 70//129 102//129
f 36//130 52//130 103//130
f 36//131 72//131 104//131
f 37//132 53//132 105//132
f 37//42 74//42 106//42
f 38//133 54//133 107//133
f 38//134 76//134 108//134
f 39//135 55//135 109//135
f 39//136 78//136 110//136
f 40//137 56//137 111//137
f 40//138 80//138 112//138
f 41//139 57//139 113//139
f 41//140 82//140 114//140
f 42//141 58//141 115//141
f 42//142 84//142 116//142
f 43//143 59//143 117//143
f 43//144 86//144 118//144
f 44//145 60//145 119//145
f 44//146 88//146 120//146
f 45//147 61//147 121//147
f 45//148 90//148 122//148
f 46//149 62//149 123//149
f 46//150 92//150 124//150
f 47//151 63//151 125//151
f 47//152 94//152 126//152
f 48//153 64//153 127//153
f 48//154 96//154 128//154
f 128//155 17//155 136//155
f 136//156 32//156 127//156
f 127//157 64//157 136//157
f 136//158 31//158 125//158
f 125//159 63//159 136//159
f 63//160 126//160 136//160
f 129//161 18//161 99//161
f 99//162 50//162 129//162
f 50//163 100//163 129//163
f 98//164 18//164 129//164
f 129//165 17//165 97//165
f 97//166 49//166 129//166
f 130//167 20//167 103//167
f 103//168 52//168 130//168
f 52//169 104//169 130//169
f 102//170 20//170 130//170
f 130//171 19//171 101//171
f 101//172 51//172 130//172
f 131//173 22//173 107//173
f 107//174 54//174 131//174
f 54//175 108//175 131//175
f 106//176 22//176 131//176
f 131//177 21//177 105//177
f 105//178 53//178 131//178
f 132//179 24//179 111//179
f 111//180 56//180 132//180
f 56//181 112//181 132//181
f 110//182 24//182 132//182
f 132//183 23//183 109//183
f 109//184 55//184 132//184
f 133//185 26//185 115//185
f 115//186 58//186 133//186
f 58//187 116//187 133//187
f 114//188 26//188 133//188
f 133//189 25//189 113//189
f 113//190 57//190 133//190
f 134//191 28//191 119//191
f 119//192 60//192 134//192
f 60//193 120//193 134//193
f 118//194 28//194 134//194
f 134//195 27//195 117//195
f 117//196 59//196 134//196
f 135//197 30//197 123//197
f 123//198 62//198 135//198
f 62//199 124//199 135//199
f 122//200 30//200 135//200
f 135//201 29//201 121//201
f 121//202 61//202 135//202
f 138//82 129//82 19//82
f 139//84 130//84 21//84
f 140//86 131//86 23//86
f 141//88 132//88 25//88
f 142//90 133//90 27//90
f 143//92 134//92 29//92
f 144//94 135//94 31//94
f 17//96 129//96 137//96
f 144//97 137//97 140//97
f 137//97 138//97 140//97
f 138//97 139//97 140//97
f 140//97 141//97 142//97
f 142//97 143//97 144//97
f 65//203 1//203 145//203
f 145//204 2//204 66//204
f 66//205 33//205 145//205
f 152//206 1//206 96//206
f 96//207 48//207 152//207
f 48//208 95//208 152//208
f 69//209 3//209 146//209
f 146//210 4//210 70//210
f 70//211 35//211 146//211
f 145//212 3//212 68//212
f 68//213 34//213 145//213
f 34//214 67//214 145//214
f 73//215 5//215 147//215
f 147//216 6//216 74//216
f 74//217 37//217 147//217
f 146//218 5//218 72//218
f 72//219 36//219 146//219
f 36//220 71//220 146//220
f 77//221 7//221 148//221
f 148//222 8//222 78//222
f 78//223 39//223 148//223
f 147//224 7//224 76//224
f 76//225 38//225 147//225
f 38//226 75//226 147//226
f 81//227 9//227 149//227
f 149//228 10//228 82//228
f 82//229 41//229 149//229
f 148//230 9//230 80//230
f 80//231 40//231 148//231
f 40//232 79//232 148//232
f 85//233 11//233 150//233
f 150//234 12//234 86//234
f 86//235 43//235 150//235
f 149//236 11//236 84//236
f 84//237 42//237 149//237
f 42//238 83//238 149//238
f 89//239 13//239 151//239
f 151//240 14//240 90//240
f 90//241 45//241 151//241
f 150//242 13//242 88//242
f 88//243 44//243 150//243
f 44//244 87//244 150//244
f 93//245 15//245 152//245
f 152//246 16//246 94//246
f 94//247 47//247 152//247
f 151//248 15//248 92//248
f 92//249 46//249 151//249
f 46//250 91//250 151//250
f 152//114 153//114 145//114
f 145//115 153//115 146//115
f 146//116 153//116 147//116
f 147//117 153//117 148//117
f 148//118 153//118 149//118
f 149//119 153//119 150//119
f 150//120 153//120 151//120
f 151//121 153//121 152//121
