# Blender v2.83.2 OBJ File: ''
# www.blender.org
mtllib diamond_lower.mtl
o diamondwhite_dmesh
v 2.083118 0.828140 -0.506631
v 2.154623 0.963426 -0.336239
v 2.132218 0.899819 -0.297723
v 2.178517 1.029671 -0.118319
v 1.659912 0.536353 -1.234682
v 1.806086 0.631884 -1.086508
v 1.783682 0.568277 -1.047993
v 1.908007 0.661567 -0.883580
v 0.985350 0.427474 -1.806883
v 1.186000 0.474558 -1.707028
v 1.163596 0.410951 -1.668512
v 1.348369 0.457309 -1.546443
v 0.162127 0.518080 -2.136119
v 0.388768 0.515400 -2.103329
v 0.366363 0.451792 -2.064813
v 0.584805 0.447994 -2.005992
v -0.684428 0.794376 -2.172269
v -0.464240 0.748191 -2.215078
v -0.486645 0.684584 -2.176562
v -0.266441 0.635038 -2.192264
v -1.425436 1.214298 -1.909828
v -1.243161 1.137491 -2.025262
v -1.265566 1.073884 -1.986747
v -1.075773 0.989967 -2.076902
v -1.948084 1.713917 -1.388751
v -1.829411 1.624032 -1.562780
v -1.851815 1.560426 -1.524264
v -1.719979 1.458745 -1.677468
v -2.172804 2.217172 -0.688367
v -2.133739 2.133744 -0.898039
v -2.156143 2.070138 -0.859523
v -2.100984 1.970006 -1.054773
v -2.065384 2.647444 0.084697
v -2.109813 2.589028 -0.132240
v -2.132218 2.525420 -0.093725
v -2.160783 2.445915 -0.303615
v -1.642179 2.939232 0.812750
v -1.761277 2.920570 0.618029
v -1.783682 2.856962 0.656545
v -1.890273 2.814018 0.461647
v -0.967616 3.048111 1.384950
v -1.141191 3.077896 1.238549
v -1.163596 3.014288 1.277065
v -1.330636 3.018276 1.124510
v -0.144393 2.957505 1.714186
v -0.343959 3.037054 1.634850
v -0.366364 2.973447 1.673366
v -0.567071 3.027591 1.584059
v 0.702162 2.681211 1.750336
v 0.509049 2.804263 1.746599
v 0.486645 2.740656 1.785115
v 0.284175 2.840546 1.770331
v 1.443170 2.261287 1.487895
v 1.287970 2.414962 1.556783
v 1.265566 2.351355 1.595299
v 1.093507 2.485618 1.654969
v 1.965818 1.761668 0.966817
v 1.874220 1.928421 1.094301
v 1.851815 1.864813 1.132817
v 1.737713 2.016840 1.255535
v 2.190538 1.258413 0.266434
v 2.178548 1.418708 0.429560
v 2.156143 1.355101 0.468076
v 2.118718 1.505579 0.632839
v 2.008083 0.748306 -0.702448
v 2.088759 0.844155 -0.516329
v 1.913648 0.677583 -0.893278
v 2.008226 0.748712 -0.702693
v 1.514284 0.499084 -1.401270
v 1.665554 0.552369 -1.244381
v 1.354011 0.473325 -1.556142
v 1.514427 0.499489 -1.401516
v 0.791741 0.439700 -1.919641
v 0.990991 0.443489 -1.816581
v 0.590446 0.464009 -2.015690
v 0.791884 0.440106 -1.919886
v -0.049544 0.579196 -2.178643
v 0.167768 0.534095 -2.145817
v -0.260800 0.651053 -2.201963
v -0.049401 0.579603 -2.178888
v -0.881494 0.896336 -2.138845
v -0.678787 0.810390 -2.181967
v -1.070132 1.005983 -2.086600
v -0.881351 0.896742 -2.139090
v -1.577452 1.342836 -1.806305
v -1.419795 1.230313 -1.919526
v -1.714338 1.474761 -1.687166
v -1.577309 1.343241 -1.806552
v -2.031465 1.850722 -1.231652
v -1.942443 1.729933 -1.398448
v -2.095343 1.986021 -1.064470
v -2.031322 1.851128 -1.231897
v -2.174413 2.342673 -0.502369
v -2.167163 2.233187 -0.698065
v -2.155142 2.461930 -0.313312
v -2.174270 2.343079 -0.502615
v -1.984533 2.743792 0.270515
v -2.059743 2.663460 0.074999
v -1.884632 2.830033 0.451949
v -1.984390 2.744198 0.270270
v -1.490734 2.993015 0.969338
v -1.636537 2.955247 0.803051
v -1.324995 3.034291 1.114812
v -1.490591 2.993420 0.969093
v -0.768192 3.052398 1.487708
v -0.961975 3.064127 1.375252
v -0.561430 3.043607 1.574361
v -0.768049 3.052804 1.487463
v 0.073094 2.912901 1.746710
v -0.138752 2.973521 1.704488
v 0.289816 2.856562 1.760633
v 0.073237 2.913308 1.746465
v 0.905044 2.595762 1.706912
v 0.707803 2.697226 1.740638
v 1.099148 2.501634 1.645271
v 0.905187 2.596168 1.706667
v 1.601002 2.149263 1.374374
v 1.448811 2.277303 1.478197
v 1.743354 2.032855 1.245837
v 1.601145 2.149668 1.374127
v 2.055015 1.641376 0.799720
v 1.971459 1.777683 0.957120
v 2.124359 1.521594 0.623141
v 2.055158 1.641782 0.799474
v 2.197963 1.149426 0.070437
v 2.196179 1.274429 0.256736
v 2.184158 1.045686 -0.128016
v 2.198106 1.149831 0.070191
v 1.693663 1.980266 -0.044292
v 1.432623 1.428819 -1.106826
v 0.439297 1.347182 -1.819463
v -0.704439 1.783174 -1.764751
v -1.328599 2.481397 -0.974737
v -1.067560 3.032843 0.087797
v -0.074234 3.114481 0.800435
v 1.069502 2.678489 0.745722
v 1.365983 1.951581 -0.655333
v 0.852613 1.692482 -1.381850
v -0.022015 1.837507 -1.651118
v -0.745555 2.301704 -1.305399
v -0.894168 2.813151 -0.547213
v -0.380799 3.072250 0.179306
v 0.493829 2.927226 0.448572
v 1.217369 2.463029 0.102853
v 0.431444 0.249589 0.021174
v 0.592704 0.590251 0.677567
v -0.182194 0.199157 -0.419065
v -0.888749 0.468495 -0.385266
v -1.274330 0.899831 0.102774
v -1.113071 1.240492 0.759165
v -0.499433 1.290924 1.199406
v 0.207122 1.021586 1.165605
v -0.568022 0.099989 0.780766
vn 0.9219 -0.3775 -0.0872
vn 0.9219 -0.3775 -0.0871
vn 0.9428 -0.3333 -0.0020
vn 0.7528 -0.5141 -0.4111
vn 0.7528 -0.5141 -0.4112
vn 0.8071 -0.4867 -0.3342
vn 0.8071 -0.4866 -0.3342
vn 0.4690 -0.5725 -0.6725
vn 0.4690 -0.5724 -0.6725
vn 0.5486 -0.5659 -0.6155
vn 0.1139 -0.5436 -0.8316
vn 0.2065 -0.5590 -0.8030
vn -0.2586 -0.4321 -0.8640
vn -0.1670 -0.4670 -0.8683
vn -0.5917 -0.2547 -0.7649
vn -0.5151 -0.3039 -0.8015
vn -0.8347 -0.0386 -0.5493
vn -0.7847 -0.0945 -0.6126
vn -0.9507 0.1834 -0.2501
vn -0.9349 0.1292 -0.3304
vn -0.9219 0.3775 0.0872
vn -0.9428 0.3333 0.0020
vn -0.7527 0.5142 0.4111
vn -0.7528 0.5141 0.4111
vn -0.8071 0.4867 0.3342
vn -0.4690 0.5724 0.6725
vn -0.4690 0.5725 0.6725
vn -0.5486 0.5659 0.6155
vn -0.1139 0.5436 0.8316
vn -0.2065 0.5590 0.8030
vn 0.2586 0.4321 0.8640
vn 0.1670 0.4670 0.8684
vn 0.5917 0.2547 0.7649
vn 0.5151 0.3039 0.8015
vn 0.8347 0.0386 0.5493
vn 0.7847 0.0945 0.6126
vn 0.9507 -0.1834 0.2501
vn 0.9349 -0.1293 0.3304
vn 0.9349 -0.1292 0.3304
vn 0.8920 -0.4182 -0.1715
vn 0.8921 -0.4180 -0.1714
vn 0.8538 -0.4543 -0.2542
vn 0.8537 -0.4545 -0.2540
vn 0.6909 -0.5372 -0.4838
vn 0.6911 -0.5366 -0.4841
vn 0.6228 -0.5534 -0.5530
vn 0.6228 -0.5540 -0.5524
vn 0.6227 -0.5533 -0.5532
vn 0.3849 -0.5730 -0.7235
vn 0.3849 -0.5735 -0.7231
vn 0.2971 -0.5689 -0.7668
vn 0.2972 -0.5690 -0.7668
vn 0.2971 -0.5688 -0.7670
vn 0.0201 -0.5233 -0.8519
vn 0.0203 -0.5227 -0.8523
vn 0.0202 -0.5230 -0.8521
vn -0.0736 -0.4977 -0.8642
vn -0.0735 -0.4971 -0.8646
vn -0.0734 -0.4975 -0.8644
vn -0.3476 -0.3930 -0.8513
vn -0.3477 -0.3930 -0.8513
vn -0.4333 -0.3501 -0.8304
vn -0.4335 -0.3501 -0.8304
vn -0.4333 -0.3502 -0.8304
vn -0.6624 -0.2029 -0.7211
vn -0.6626 -0.2031 -0.7209
vn -0.7276 -0.1500 -0.6694
vn -0.7272 -0.1495 -0.6699
vn -0.7275 -0.1496 -0.6696
vn -0.8767 0.0178 -0.4807
vn -0.8768 0.0172 -0.4806
vn -0.8767 0.0177 -0.4807
vn -0.9101 0.0740 -0.4077
vn -0.9102 0.0738 -0.4075
vn -0.9101 0.0741 -0.4077
vn -0.9573 0.2359 -0.1674
vn -0.9573 0.2358 -0.1674
vn -0.9547 0.2859 -0.0831
vn -0.9546 0.2860 -0.0831
vn -0.8921 0.4179 0.1716
vn -0.8921 0.4183 0.1710
vn -0.8921 0.4180 0.1714
vn -0.8536 0.4548 0.2540
vn -0.8537 0.4545 0.2540
vn -0.8534 0.4550 0.2543
vn -0.6910 0.5371 0.4837
vn -0.6907 0.5368 0.4846
vn -0.6911 0.5367 0.4841
vn -0.6235 0.5545 0.5512
vn -0.6230 0.5541 0.5521
vn -0.6236 0.5547 0.5509
vn -0.3852 0.5734 0.7231
vn -0.3850 0.5735 0.7232
vn -0.2975 0.5693 0.7664
vn -0.2972 0.5690 0.7668
vn -0.2975 0.5694 0.7664
vn -0.0200 0.5231 0.8520
vn -0.0203 0.5228 0.8522
vn -0.0202 0.5230 0.8521
vn 0.0738 0.4979 0.8641
vn 0.0738 0.4974 0.8644
vn 0.0737 0.4980 0.8640
vn 0.3478 0.3930 0.8512
vn 0.3474 0.3929 0.8514
vn 0.3477 0.3930 0.8513
vn 0.4340 0.3505 0.8299
vn 0.4338 0.3503 0.8301
vn 0.4342 0.3506 0.8298
vn 0.6625 0.2035 0.7209
vn 0.6626 0.2031 0.7209
vn 0.7274 0.1494 0.6697
vn 0.7272 0.1495 0.6699
vn 0.7274 0.1494 0.6698
vn 0.8768 -0.0177 0.4805
vn 0.8767 -0.0177 0.4807
vn 0.9102 -0.0743 0.4075
vn 0.9102 -0.0738 0.4075
vn 0.9102 -0.0744 0.4074
vn 0.9573 -0.2356 0.1675
vn 0.9572 -0.2361 0.1674
vn 0.9573 -0.2358 0.1674
vn 0.9548 -0.2856 0.0831
vn 0.9547 -0.2856 0.0831
vn 0.8327 0.4642 -0.3021
vn 0.8327 0.4640 -0.3022
vn 0.8327 0.4641 -0.3020
vn 0.7928 0.6014 -0.0983
vn 0.7926 0.6018 -0.0979
vn 0.7928 0.6015 -0.0982
vn 0.6415 0.2826 -0.7132
vn 0.6421 0.2823 -0.7127
vn 0.6418 0.2825 -0.7130
vn 0.7797 0.3522 -0.5177
vn 0.7797 0.3520 -0.5179
vn 0.7797 0.3521 -0.5178
vn 0.2051 0.3048 -0.9301
vn 0.2054 0.3045 -0.9301
vn 0.2050 0.3049 -0.9301
vn 0.4401 0.2660 -0.8577
vn 0.4399 0.2659 -0.8578
vn 0.4400 0.2659 -0.8577
vn -0.2217 0.5183 -0.8260
vn -0.2216 0.5177 -0.8263
vn -0.2217 0.5181 -0.8261
vn -0.0272 0.3935 -0.9189
vn -0.0274 0.3934 -0.9189
vn -0.0273 0.3934 -0.9190
vn -0.3885 0.7973 -0.4620
vn -0.3886 0.7971 -0.4622
vn -0.3884 0.7974 -0.4619
vn -0.3483 0.6600 -0.6657
vn -0.3485 0.6600 -0.6655
vn -0.3485 0.6599 -0.6656
vn -0.1976 0.9790 -0.0509
vn -0.1979 0.9789 -0.0510
vn -0.1974 0.9790 -0.0509
vn -0.3352 0.9095 -0.2458
vn -0.3354 0.9094 -0.2460
vn -0.3354 0.9094 -0.2461
vn 0.2396 0.9565 0.1661
vn 0.2389 0.9567 0.1664
vn 0.2393 0.9566 0.1662
vn 0.0043 0.9956 0.0937
vn 0.0044 0.9956 0.0939
vn 0.0043 0.9956 0.0939
vn 0.6660 0.7434 0.0623
vn 0.6658 0.7435 0.0626
vn 0.6660 0.7433 0.0622
vn 0.4715 0.8681 0.1550
vn 0.4717 0.8680 0.1551
vn 0.4716 0.8681 0.1551
vn 0.5490 0.5853 -0.5967
vn 0.5267 0.3509 -0.7743
vn 0.3268 0.5670 -0.7561
vn 0.1166 0.4189 -0.9005
vn 0.0709 0.6646 -0.7438
vn -0.2226 0.6365 -0.7384
vn -0.0687 0.8208 -0.5671
vn -0.2923 0.8763 -0.3830
vn -0.0103 0.9441 -0.3294
vn -0.0516 0.9978 -0.0424
vn 0.2119 0.9624 -0.1700
vn 0.3584 0.9298 0.0839
vn 0.4678 0.8649 -0.1823
vn 0.6977 0.7121 -0.0782
vn 0.6074 0.7087 -0.3590
vn 0.7673 0.4724 -0.4337
vn 0.2885 0.8190 -0.4959
vn 0.3839 -0.8972 0.2182
vn 0.3840 -0.8972 0.2181
vn 0.4406 -0.7776 0.4486
vn 0.4406 -0.7779 0.4481
vn 0.4406 -0.7776 0.4485
vn 0.0213 -0.9892 -0.1447
vn 0.0213 -0.9892 -0.1448
vn 0.2368 -0.9715 0.0098
vn 0.2364 -0.9716 0.0094
vn 0.2367 -0.9715 0.0097
vn -0.4775 -0.8531 -0.2101
vn -0.4776 -0.8531 -0.2102
vn -0.2295 -0.9476 -0.2220
vn -0.2300 -0.9475 -0.2221
vn -0.8204 -0.5686 0.0603
vn -0.8205 -0.5685 0.0603
vn -0.6851 -0.7200 -0.1110
vn -0.6854 -0.7197 -0.1108
vn -0.6851 -0.7199 -0.1110
vn -0.8064 -0.3023 0.5082
vn -0.8065 -0.3022 0.5082
vn -0.8631 -0.4219 0.2777
vn -0.8631 -0.4216 0.2782
vn -0.8631 -0.4218 0.2778
vn -0.4438 -0.2103 0.8711
vn -0.4438 -0.2102 0.8711
vn -0.6593 -0.2279 0.7165
vn -0.6589 -0.2278 0.7169
vn -0.6592 -0.2279 0.7166
vn 0.0550 -0.3464 0.9365
vn 0.0551 -0.3464 0.9365
vn -0.1930 -0.2518 0.9483
vn -0.1925 -0.2519 0.9484
vn 0.3979 -0.6310 0.6660
vn 0.3980 -0.6309 0.6660
vn 0.2626 -0.4795 0.8373
vn 0.2629 -0.4798 0.8371
vn 0.3910 -0.8527 0.3465
vn 0.1141 -0.9924 -0.0453
vn -0.3576 -0.9142 -0.1906
vn -0.7478 -0.6639 -0.0041
vn -0.8280 -0.3880 0.4048
vn -0.5511 -0.2483 0.7966
vn -0.0794 -0.3265 0.9419
vn 0.3108 -0.5769 0.7554
vn 0.5486 -0.5660 -0.6154
vn -0.9428 0.3333 0.0021
vn -0.1139 0.5437 0.8315
vn 0.6911 -0.5370 -0.4838
vn 0.3850 -0.5729 -0.7236
vn 0.0203 -0.5231 -0.8521
vn -0.0738 -0.4974 -0.8644
vn -0.3475 -0.3928 -0.8514
vn -0.6625 -0.2030 -0.7211
vn -0.7272 -0.1495 -0.6700
vn -0.8767 0.0177 -0.4806
vn -0.9572 0.2361 -0.1675
vn -0.6909 0.5371 0.4840
vn -0.6229 0.5539 0.5525
vn -0.3853 0.5734 0.7230
vn -0.0201 0.5230 0.8521
vn 0.4335 0.3501 0.8304
vn 0.6625 0.2036 0.7208
vn 0.7272 0.1495 0.6700
vn 0.8769 -0.0175 0.4804
vn 0.9573 -0.2355 0.1675
vn 0.9546 -0.2860 0.0831
vn 0.8329 0.4641 -0.3015
vn 0.8327 0.4639 -0.3023
vn 0.8327 0.4641 -0.3019
vn 0.7931 0.6011 -0.0984
vn 0.7929 0.6014 -0.0983
vn 0.7927 0.6016 -0.0983
vn 0.6415 0.2824 -0.7133
vn 0.6419 0.2825 -0.7129
vn 0.6417 0.2826 -0.7130
vn 0.7799 0.3523 -0.5174
vn 0.7797 0.3517 -0.5181
vn 0.2046 0.3050 -0.9301
vn 0.2054 0.3048 -0.9300
vn 0.4404 0.2659 -0.8575
vn 0.4397 0.2657 -0.8580
vn 0.4403 0.2659 -0.8575
vn -0.2220 0.5184 -0.8258
vn -0.2216 0.5181 -0.8261
vn -0.2216 0.5183 -0.8260
vn -0.0269 0.3933 -0.9190
vn -0.0278 0.3934 -0.9190
vn -0.0268 0.3934 -0.9190
vn -0.3884 0.7976 -0.4615
vn -0.3884 0.7973 -0.4620
vn -0.3883 0.7974 -0.4619
vn -0.3483 0.6597 -0.6659
vn -0.3488 0.6601 -0.6653
vn -0.3482 0.6599 -0.6658
vn -0.1971 0.9791 -0.0506
vn -0.1975 0.9790 -0.0509
vn -0.1973 0.9790 -0.0509
vn -0.3355 0.9092 -0.2464
vn -0.3354 0.9095 -0.2456
vn 0.2397 0.9565 0.1662
vn 0.2392 0.9566 0.1662
vn 0.2394 0.9566 0.1661
vn 0.0039 0.9956 0.0937
vn 0.0046 0.9955 0.0943
vn 0.0041 0.9956 0.0936
vn 0.6663 0.7431 0.0620
vn 0.6659 0.7435 0.0623
vn 0.4713 0.8682 0.1552
vn 0.4720 0.8678 0.1553
vn 0.4714 0.8682 0.1551
vn 0.3839 -0.8974 0.2177
vn 0.3842 -0.8970 0.2185
vn 0.4407 -0.7773 0.4489
vn 0.4405 -0.7777 0.4485
vn 0.0210 -0.9892 -0.1451
vn 0.0217 -0.9892 -0.1446
vn 0.2371 -0.9714 0.0100
vn 0.2367 -0.9715 0.0098
vn -0.4780 -0.8528 -0.2102
vn -0.4772 -0.8533 -0.2103
vn -0.2291 -0.9477 -0.2221
vn -0.2296 -0.9476 -0.2220
vn -0.8207 -0.5682 0.0606
vn -0.8203 -0.5688 0.0600
vn -0.6848 -0.7202 -0.1113
vn -0.8063 -0.3020 0.5086
vn -0.8067 -0.3024 0.5078
vn -0.8064 -0.3022 0.5082
vn -0.8631 -0.4220 0.2773
vn -0.8631 -0.4218 0.2777
vn -0.8630 -0.4219 0.2778
vn -0.4434 -0.2101 0.8713
vn -0.4442 -0.2102 0.8709
vn -0.6596 -0.2279 0.7162
vn -0.6592 -0.2279 0.7165
vn -0.6592 -0.2280 0.7166
vn 0.0555 -0.3465 0.9364
vn 0.0547 -0.3462 0.9366
vn -0.1934 -0.2516 0.9483
vn -0.1929 -0.2519 0.9483
vn 0.3982 -0.6311 0.6656
vn 0.3978 -0.6307 0.6663
vn 0.3980 -0.6310 0.6660
vn 0.2624 -0.4792 0.8376
vn 0.2626 -0.4796 0.8373
usemtl white
s 1
f 1//1 2//2 3//2
f 2//3 4//3 3//3
f 5//4 6//4 7//5
f 6//6 8//7 7//6
f 9//8 10//9 11//9
f 10//10 12//10 11//10
f 13//11 14//11 15//11
f 14//12 16//12 15//12
f 17//13 18//13 19//13
f 18//14 20//14 19//14
f 21//15 22//15 23//15
f 22//16 24//16 23//16
f 25//17 26//17 27//17
f 26//18 28//18 27//18
f 29//19 30//19 31//19
f 30//20 32//20 31//20
f 33//21 34//21 35//21
f 34//22 36//22 35//22
f 37//23 38//24 39//24
f 38//25 40//25 39//25
f 41//26 42//27 43//27
f 42//28 44//28 43//28
f 45//29 46//29 47//29
f 46//30 48//30 47//30
f 49//31 50//31 51//31
f 50//32 52//32 51//32
f 53//33 54//33 55//33
f 54//34 56//34 55//34
f 57//35 58//35 59//35
f 58//36 60//36 59//36
f 61//37 62//37 63//37
f 62//38 64//39 63//38
f 65//40 66//41 1//41
f 65//42 67//43 68//42
f 69//44 70//45 5//45
f 69//46 71//47 72//48
f 73//49 74//50 9//50
f 73//51 75//52 76//53
f 77//54 78//55 13//56
f 77//57 79//58 80//59
f 81//60 82//61 17//61
f 81//62 83//63 84//64
f 85//65 86//66 21//66
f 85//67 87//68 88//69
f 89//70 90//71 25//72
f 89//73 91//74 92//75
f 93//76 94//77 29//77
f 93//78 95//79 96//78
f 97//80 98//81 33//82
f 97//83 99//84 100//85
f 101//86 102//87 37//88
f 101//89 103//90 104//91
f 105//92 106//93 41//93
f 105//94 107//95 108//96
f 109//97 110//98 45//99
f 109//100 111//101 112//102
f 113//103 114//104 49//105
f 113//106 115//107 116//108
f 117//109 118//110 53//110
f 117//111 119//112 120//113
f 121//114 122//115 57//115
f 121//116 123//117 124//118
f 125//119 126//120 61//121
f 125//122 127//123 128//122
f 128//124 127//125 129//126
f 123//127 62//128 129//129
f 71//130 10//131 130//132
f 68//133 67//134 130//135
f 79//136 18//137 131//138
f 76//139 75//140 131//141
f 87//142 26//143 132//144
f 84//145 83//146 132//147
f 95//148 34//149 133//150
f 92//151 91//152 133//153
f 103//154 42//155 134//156
f 100//157 99//158 134//159
f 111//160 50//161 135//162
f 108//163 107//164 135//165
f 119//166 58//167 136//168
f 116//169 115//170 136//171
f 137//172 130//172 138//172
f 138//173 10//173 131//173
f 138//174 131//174 139//174
f 139//175 18//175 132//175
f 139//176 132//176 140//176
f 140//177 26//177 133//177
f 140//178 133//178 141//178
f 141//179 34//179 134//179
f 141//180 134//180 142//180
f 142//181 42//181 135//181
f 142//182 135//182 143//182
f 143//183 50//183 136//183
f 143//184 136//184 144//184
f 144//185 58//185 129//185
f 144//186 129//186 137//186
f 2//187 137//187 129//187
f 140//188 142//188 144//188
f 65//189 1//190 145//190
f 61//191 63//192 146//193
f 73//194 9//195 147//195
f 5//196 7//197 145//198
f 81//199 17//200 148//200
f 13//201 15//202 147//201
f 89//203 25//204 149//204
f 21//205 23//206 148//207
f 97//208 33//209 150//209
f 29//210 31//211 149//212
f 105//213 41//214 151//214
f 37//215 39//216 150//217
f 113//218 49//219 152//219
f 45//220 47//221 151//220
f 121//222 57//223 146//223
f 53//224 55//225 152//224
f 146//226 145//226 3//226
f 145//227 147//227 11//227
f 147//228 148//228 19//228
f 148//229 149//229 27//229
f 149//230 150//230 35//230
f 150//231 151//231 43//231
f 151//232 152//232 51//232
f 152//233 146//233 59//233
f 1//1 66//1 2//2
f 2//3 127//3 4//3
f 5//4 70//4 6//4
f 6//6 67//7 8//7
f 9//8 74//8 10//9
f 10//10 71//234 12//10
f 13//11 78//11 14//11
f 14//12 75//12 16//12
f 17//13 82//13 18//13
f 18//14 79//14 20//14
f 21//15 86//15 22//15
f 22//16 83//16 24//16
f 25//17 90//17 26//17
f 26//18 87//18 28//18
f 29//19 94//19 30//19
f 30//20 91//20 32//20
f 33//21 98//21 34//21
f 34//22 95//235 36//22
f 37//23 102//23 38//24
f 38//25 99//25 40//25
f 41//26 106//26 42//27
f 42//28 103//28 44//28
f 45//29 110//236 46//29
f 46//30 107//30 48//30
f 49//31 114//31 50//31
f 50//32 111//32 52//32
f 53//33 118//33 54//33
f 54//34 115//34 56//34
f 57//35 122//35 58//35
f 58//36 119//36 60//36
f 61//37 126//37 62//37
f 62//38 123//39 64//39
f 65//40 68//40 66//41
f 65//42 8//43 67//43
f 69//44 72//237 70//45
f 69//46 12//47 71//47
f 73//49 76//238 74//50
f 73//51 16//52 75//52
f 77//54 80//239 78//55
f 77//57 20//240 79//58
f 81//60 84//241 82//61
f 81//62 24//63 83//63
f 85//65 88//242 86//66
f 85//67 28//243 87//68
f 89//70 92//244 90//71
f 89//73 32//74 91//74
f 93//76 96//245 94//77
f 93//78 36//79 95//79
f 97//80 100//82 98//81
f 97//83 40//84 99//84
f 101//86 104//246 102//87
f 101//89 44//247 103//90
f 105//92 108//248 106//93
f 105//94 48//95 107//95
f 109//97 112//249 110//98
f 109//100 52//101 111//101
f 113//103 116//105 114//104
f 113//106 56//250 115//107
f 117//109 120//251 118//110
f 117//111 60//252 119//112
f 121//114 124//253 122//115
f 121//116 64//117 123//117
f 125//119 128//254 126//120
f 125//122 4//255 127//123
f 127//125 2//256 129//126
f 129//126 62//257 126//258
f 126//258 128//124 129//126
f 129//129 58//259 122//260
f 122//260 124//261 129//129
f 124//261 123//127 129//129
f 130//132 6//262 70//263
f 70//263 72//264 130//132
f 72//264 71//130 130//132
f 67//134 6//265 130//135
f 130//135 2//266 66//134
f 66//134 68//133 130//135
f 131//138 14//267 78//136
f 78//136 80//268 131//138
f 80//268 79//136 131//138
f 75//140 14//269 131//141
f 131//141 10//270 74//271
f 74//271 76//139 131//141
f 132//144 22//272 86//273
f 86//273 88//274 132//144
f 88//274 87//142 132//144
f 83//146 22//275 132//147
f 132//147 18//276 82//277
f 82//277 84//145 132//147
f 133//150 30//278 94//279
f 94//279 96//280 133//150
f 96//280 95//148 133//150
f 91//152 30//281 133//153
f 133//153 26//282 90//283
f 90//283 92//151 133//153
f 134//156 38//284 102//285
f 102//285 104//286 134//156
f 104//286 103//154 134//156
f 99//158 38//287 134//159
f 134//159 34//288 98//158
f 98//158 100//157 134//159
f 135//162 46//289 110//290
f 110//290 112//291 135//162
f 112//291 111//160 135//162
f 107//164 46//292 135//165
f 135//165 42//293 106//294
f 106//294 108//163 135//165
f 136//168 54//295 118//166
f 118//166 120//296 136//168
f 120//296 119//166 136//168
f 115//170 54//297 136//171
f 136//171 50//298 114//299
f 114//299 116//169 136//171
f 138//173 130//173 10//173
f 139//175 131//175 18//175
f 140//177 132//177 26//177
f 141//179 133//179 34//179
f 142//181 134//181 42//181
f 143//183 135//183 50//183
f 144//185 136//185 58//185
f 2//187 130//187 137//187
f 144//188 137//188 140//188
f 137//188 138//188 140//188
f 138//188 139//188 140//188
f 140//188 141//188 142//188
f 142//188 143//188 144//188
f 1//190 3//300 145//190
f 145//190 7//301 8//190
f 8//190 65//189 145//190
f 146//193 3//302 4//191
f 4//191 125//303 146//193
f 125//303 61//191 146//193
f 9//195 11//304 147//195
f 147//195 15//305 16//195
f 16//195 73//194 147//195
f 145//198 11//306 12//196
f 12//196 69//307 145//198
f 69//307 5//196 145//198
f 17//200 19//308 148//200
f 148//200 23//309 24//200
f 24//200 81//199 148//200
f 147//201 19//310 20//201
f 20//201 77//311 147//201
f 77//311 13//201 147//201
f 25//204 27//312 149//204
f 149//204 31//313 32//204
f 32//204 89//203 149//204
f 148//207 27//314 28//205
f 28//205 85//205 148//207
f 85//205 21//205 148//207
f 33//209 35//315 150//209
f 150//209 39//316 40//317
f 40//317 97//208 150//209
f 149//212 35//318 36//319
f 36//319 93//320 149//212
f 93//320 29//210 149//212
f 41//214 43//321 151//214
f 151//214 47//322 48//214
f 48//214 105//213 151//214
f 150//217 43//323 44//324
f 44//324 101//325 150//217
f 101//325 37//215 150//217
f 49//219 51//326 152//219
f 152//219 55//327 56//219
f 56//219 113//218 152//219
f 151//220 51//328 52//220
f 52//220 109//329 151//220
f 109//329 45//220 151//220
f 57//223 59//330 146//223
f 146//223 63//331 64//332
f 64//332 121//222 146//223
f 152//224 59//333 60//224
f 60//224 117//334 152//224
f 117//334 53//224 152//224
f 146//226 153//226 145//226
f 145//227 153//227 147//227
f 147//228 153//228 148//228
f 148//229 153//229 149//229
f 149//230 153//230 150//230
f 150//231 153//231 151//231
f 151//232 153//232 152//232
f 152//233 153//233 146//233
